<svg width="510" height="510" xmlns="http://www.w3.org/2000/svg">

 <g>
  <title>background</title>
  <rect fill="none" id="canvas_background" height="402" width="582" y="-1" x="-1"/>
 </g>
 <g>
  <title>Layer 1</title>
  <g stroke="null" id="svg_3">
   <path stroke="null" id="svg_1" d="m254.972774,49.785845c113.27106,0 205.227772,92.074721 205.227772,205.227772c0,113.162128 -92.101954,205.227772 -205.227772,205.227772s-205.191461,-92.101954 -205.191461,-205.200539s92.065643,-205.245927 205.191461,-205.245927m0,-45.388308c-138.407105,-0.009078 -250.579768,112.190819 -250.579768,250.597924c0,138.416183 112.14543,250.597924 250.579768,250.597924s250.634234,-112.163586 250.634234,-250.597924c0,-138.407105 -112.199896,-250.607001 -250.634234,-250.607001l0,0.009078z"/>
   <path stroke="null" id="svg_2" d="m373.418101,254.350947l0.726213,-0.780679l-129.719783,-137.599193c-16.612121,-17.683285 -43.645397,-17.637896 -60.330138,0.090777c-16.702897,17.737751 -16.73013,46.432239 -0.090777,64.106446l70.714983,75.026872l-70.442653,74.745465c-16.748285,17.728673 -16.748285,46.423161 -0.145243,64.106446c16.702897,17.70144 43.690785,17.628819 60.366449,-0.090777l130.246287,-138.162008l-1.334416,-1.434271l0.009078,-0.009078z"/>
  </g>
 </g>
</svg>